# xmcd
#
# Track frame offsets:
# 182
# 26132
# 40607
# 63507
# 80645
# 98882
# 116807
# 138920
# 165820
# 182132
# 204257
#
# Disc length: 3008 seconds
#
#
# Revision: 2
# Processed by: cddbd v1.5.1PL0 Copyright (c) Steve Scherf et al.
# Submitted via: FreeRIP 2.70 
#
DISCID=8c0bbe0b
DTITLE=Sheryl Crow - Acoustic
DYEAR=1995
DGENRE=Acoustic
TTITLE0=Leaving Las Vegas
TTITLE1=Strong Enough
TTITLE2=All I Wanna Do
TTITLE3=The Na Na Song
TTITLE4=Dýer Maker
TTITLE5=All I Wanna Do
TTITLE6=Can´t Cry Anymore
TTITLE7=Leaving Las Vegas
TTITLE8=Strong Enough
TTITLE9=The Na Na Song
TTITLE10=All I Wanna Do
EXTD=YEAR: 1995
EXTT0=
EXTT1=
EXTT2=
EXTT3=
EXTT4=
EXTT5=
EXTT6=
EXTT7=
EXTT8=
EXTT9=
EXTT10=
PLAYORDER=
